<svg xmlns="http://www.w3.org/2000/svg" viewBox="0 0 18.559 18.555"><defs><style>.a{fill:#9b9b9b;}</style></defs><path class="a" d="M9.206,36.345A4.757,4.757,0,1,0,13.964,41.1,4.75,4.75,0,0,0,9.206,36.345Zm0,7.85A3.093,3.093,0,1,1,12.3,41.1,3.1,3.1,0,0,1,9.206,44.2Zm6.061-8.045a1.11,1.11,0,1,1-1.11-1.11A1.107,1.107,0,0,1,15.268,36.151Zm3.151,1.126a5.491,5.491,0,0,0-1.5-3.888,5.527,5.527,0,0,0-3.888-1.5c-1.532-.087-6.123-.087-7.655,0a5.519,5.519,0,0,0-3.888,1.495,5.509,5.509,0,0,0-1.5,3.888C-.1,38.8-.1,43.4-.01,44.928a5.491,5.491,0,0,0,1.5,3.888,5.534,5.534,0,0,0,3.888,1.5c1.532.087,6.123.087,7.655,0a5.491,5.491,0,0,0,3.888-1.5,5.527,5.527,0,0,0,1.5-3.888C18.506,43.4,18.506,38.809,18.419,37.277ZM16.44,46.572a3.131,3.131,0,0,1-1.764,1.764c-1.221.484-4.12.373-5.469.373s-4.252.108-5.469-.373a3.131,3.131,0,0,1-1.764-1.764C1.489,45.35,1.6,42.452,1.6,41.1s-.108-4.252.373-5.469a3.131,3.131,0,0,1,1.764-1.764c1.221-.484,4.12-.373,5.469-.373s4.252-.108,5.469.373a3.131,3.131,0,0,1,1.764,1.764c.484,1.221.373,4.12.373,5.469S16.924,45.354,16.44,46.572Z" transform="translate(0.075 -31.825)"/></svg>