<svg xmlns="http://www.w3.org/2000/svg" viewBox="0 0 26 28.333"><defs><style>.a,.b{fill:#9b9b9b;}.b{font-size:14px;font-family:OpenSans-ExtraBold, Open Sans;font-weight:800;}</style></defs><g transform="translate(-1303 -711)"><path class="a" d="M15.816,9.024l1.416-6.229a.719.719,0,0,0-.7-.878H4.768L4.493.575A.719.719,0,0,0,3.789,0H.719A.719.719,0,0,0,0,.719V1.2a.719.719,0,0,0,.719.719H2.812L4.915,12.2a1.677,1.677,0,1,0,2.008.257H13.2a1.677,1.677,0,1,0,1.9-.312l.165-.727a.719.719,0,0,0-.7-.878H6.532l-.2-.958h8.779A.719.719,0,0,0,15.816,9.024Z" transform="translate(1303 724)"/><text class="b" transform="translate(1325 726)"><tspan x="-3.961" y="0">+</tspan></text></g></svg>