<svg xmlns="http://www.w3.org/2000/svg" viewBox="0 0 19 13.359"><defs><style>.a{fill:#9b9b9b;}</style></defs><path class="a" d="M33.536,66.09a2.387,2.387,0,0,0-1.68-1.691,56.419,56.419,0,0,0-7.423-.4,56.419,56.419,0,0,0-7.423.4,2.387,2.387,0,0,0-1.68,1.691,26.88,26.88,0,0,0,0,9.206,2.352,2.352,0,0,0,1.68,1.664,56.419,56.419,0,0,0,7.423.4,56.419,56.419,0,0,0,7.423-.4,2.352,2.352,0,0,0,1.68-1.664,26.88,26.88,0,0,0,0-9.206ZM22.49,73.518v-5.65l4.966,2.825Z" transform="translate(-14.933 -64)"/></svg>